PathFileType	4	(X/Y/Z)	45_1_6_p0_0-196_filt_butterworth.trc
DataRate	CameraRate	NumFrames	NumMarkers	Units	OrigDataRate	OrigDataStartFrame	OrigNumFrames
60.0	60.0	7	27	m	60.0	0	196
Frame#	Time	RHip			RKnee			RAnkle			RBigToe			RSmallToe			RHeel			LHip			LKnee			LAnkle			LBigToe			LSmallToe			LHeel			Neck			Head			Nose			RShoulder			RElbow			RWrist			RThumb			RIndex			RPinky			LShoulder			LElbow			LWrist			LThumb			LIndex			LPinky			
		X1	Y1	Z1	X2	Y2	Z2	X3	Y3	Z3	X4	Y4	Z4	X5	Y5	Z5	X6	Y6	Z6	X7	Y7	Z7	X8	Y8	Z8	X9	Y9	Z9	X10	Y10	Z10	X11	Y11	Z11	X12	Y12	Z12	X13	Y13	Z13	X14	Y14	Z14	X15	Y15	Z15	X16	Y16	Z16	X17	Y17	Z17	X18	Y18	Z18	X19	Y19	Z19	X20	Y20	Z20	X21	Y21	Z21	X22	Y22	Z22	X23	Y23	Z23	X24	Y24	Z24	X25	Y25	Z25	X26	Y26	Z26	X27	Y27	Z27	
0	0.0	0.5757546392997313	0.7088304122589586	0.7801053577672996	0.5960874271251088	0.20853136646397302	0.8261497084719474	0.6059663623501763	-0.23928721994925134	0.7817140257331266	0.5901739597274105	-0.2440006356793604	0.611852404104039	0.6529684210558003	-0.24193929906121553	0.6204589774014833	0.5711904959229201	-0.3071213258300018	0.8156185904883754	0.37567324154594495	0.6913320580664524	0.7755182617723075	0.4018018181272101	0.19133345316068695	0.7958007961381307	0.4070800768427428	-0.27020199003255924	0.8061520022028088	0.45468795377817256	-0.24853409246551114	0.6085020051791711	0.3894031256785945	-0.2730947301386573	0.6479116369363285	0.41773878997572955	-0.33479217159739955	0.8368989993135528	0.42621134907326513	1.2673447548956076	0.7716852950247872	0.4181265621216652	1.520617279227587	0.75474174916921	0.44100694301574106	1.3969707664320596	0.6851666971713978	0.6020478721035316	1.1976055627184217	0.7646532750308782	0.637939702085825	0.9252492430285332	0.7284765510476824	0.5628761017266586	0.6747471388198077	0.6296508840495616	0.4568790378569384	0.5944772611643138	0.6079306761459614	0.4614177504318023	0.5781222387470529	0.6181613594603987	0.49031038241276115	0.5618584854000241	0.6641961442339979	0.275578369291744	1.1564678319591757	0.7909703445087287	0.2676121048448131	0.8877229558152625	0.7427610346662755	0.4021765186731032	0.6779588419900369	0.6463357559377351	0.4901284506722416	0.6443946855427077	0.5643599251946465	0.4959113703520497	0.6190893190932856	0.5550257916564285	0.46239687744839364	0.5826329344250876	0.6288991212849971	
1	0.0166666666666666	0.5753319771640842	0.7085005381673875	0.7781076286509379	0.5944447477374926	0.20197868572067829	0.8300305656244273	0.605976375109336	-0.23932325693163706	0.7828408490801024	0.5945627281509059	-0.254356748886467	0.625397605368228	0.656265932640558	-0.24668375351318178	0.6291119427203348	0.5731466887335611	-0.31383990306206844	0.8244373097178179	0.3738894309702275	0.6890882391627521	0.7783461108494563	0.4018340864131069	0.19207227465312798	0.7961039617333221	0.40702960330341237	-0.2690745768459258	0.8055372980710374	0.4537416988002845	-0.2531797776927597	0.6147767647889775	0.3897703569713352	-0.2730172090572661	0.6486968835239567	0.41765970426029037	-0.3336383432078516	0.837847942353943	0.42619703483946225	1.2675709751478252	0.7717045410736287	0.420316923254218	1.5212728114717704	0.7481851450918641	0.4394213197187968	1.3977187369347146	0.6854326838370042	0.6017746604983079	1.1980234252327824	0.763626371495628	0.6410484305388346	0.9233021451963694	0.7376304949237807	0.5632703569285794	0.6750275569279529	0.6297803690240174	0.4582759487724013	0.5921111922140867	0.6140055874436965	0.4605188338144411	0.5790147337156946	0.6190635982023561	0.48976252624650085	0.5623205394273815	0.6620621520300796	0.27516745114312635	1.1562757300898105	0.7918694715660057	0.26736285034693225	0.8894438919651753	0.7422904071847808	0.4045550092160036	0.6809906403219137	0.6403025062834101	0.4881895786413383	0.6428723122389767	0.5694536656728504	0.4953800703395449	0.6131963843360869	0.5652473072254526	0.4638372723736367	0.5800882598226056	0.6333656204264569	
2	0.0333333333333333	0.5749960565268629	0.7081690159098898	0.7766417233476381	0.5930998957003136	0.19641559103600598	0.833258290860956	0.6060055149357789	-0.23938897598853048	0.7837353836773755	0.597368725662792	-0.26103905054891346	0.6340796535344212	0.6584759045022169	-0.2503248384429421	0.6352341479340758	0.5748854362532203	-0.3198097361945923	0.8321715989605745	0.37243666354768645	0.6873720068923308	0.7807508530476532	0.40182377788137696	0.1927826102065644	0.7963283862701465	0.40694160923842326	-0.26807585814567214	0.8050414840083572	0.45308259739492507	-0.25594955209737374	0.61847206555216	0.38995857171956283	-0.27327818120568487	0.6493302646727155	0.4175384940966571	-0.3328045214230595	0.8388801757078745	0.42619529775655646	1.2676887396444787	0.7717242269241995	0.4217083848469641	1.5216712368513563	0.74418286491362	0.4382481628446222	1.398324838743325	0.6851232268030344	0.60182667574642	1.198217154750642	0.7637272378574882	0.6433901862887729	0.9223846566073648	0.7421288198380548	0.5633701621223822	0.6750928295992207	0.6298462838711865	0.4591654886260695	0.5905883994161424	0.6178644920335006	0.4603091486978467	0.5798109451294721	0.6194111857935501	0.4903057574528589	0.5627502561847293	0.6597450964871463	0.2749562311540707	1.1561806946223006	0.79241991243522	0.2671909653747204	0.890628227803488	0.74200207106198	0.40610678329875777	0.6827777413472363	0.6365039142795912	0.48709783125130396	0.6418506753635742	0.5726681184248296	0.4950732817969278	0.6094705285871236	0.5717598007687392	0.46519096711930963	0.5783030640881477	0.6364086080625093	
3	0.05	0.5747447825461078	0.7078287081304455	0.7756593086773813	0.592029244650488	0.19177933347361875	0.8358669184523523	0.6060488008162748	-0.239475024450044	0.7844092298499676	0.5988917377867428	-0.2647393450369297	0.6388203750691366	0.6597401203646206	-0.25304763840291605	0.6392877248366747	0.576411130092597	-0.3250565866034384	0.8388724131732133	0.37129188512614164	0.6861280057614246	0.7827545204769701	0.401786972200454	0.19346804876031876	0.7964575015983313	0.40682284827564974	-0.26720181752192834	0.8046567379503792	0.4526630195199603	-0.25722435293458934	0.6201184090979986	0.3900058678618389	-0.2738009091512418	0.6498111482908685	0.4173829793294822	-0.33226324881099556	0.8399793369574344	0.4262088246323625	1.2676930610716808	0.7717368765329287	0.4224832427318238	1.521859610453784	0.7423328890559703	0.4374274078432203	1.3988031989489838	0.6844014106761966	0.6021309889781539	1.1982233598046677	0.764701776826905	0.6450961343678729	0.9222743173432295	0.7429933590579884	0.563280786117627	0.6750009994398004	0.629867874615187	0.4596466875404556	0.5897463775521654	0.6199348771486651	0.4606237997081025	0.5804749734473602	0.6193932507773294	0.49167397532106877	0.5631437607701716	0.6573765660667737	0.27493508846753717	1.156181289889757	0.7926064229110292	0.2670854201130062	0.8913656216858411	0.7418626768844229	0.4069949543186958	0.6835540962611978	0.6344931411854688	0.4866434835788828	0.6411847375188789	0.574484960679966	0.49494044477177773	0.6074909754014123	0.5752739408934953	0.4664314058106009	0.5771613945411288	0.6382697788133957	
4	0.0666666666666666	0.5745760603798596	0.7074724774730342	0.7751120514601487	0.5912091682249313	0.18800716409717927	0.837890482669434	0.6061012517375929	-0.23957204964628998	0.7848739879229008	0.5994315500464323	-0.266149436720746	0.6405415964388916	0.6602003639516124	-0.25503723794552335	0.6417348052220998	0.5777281618623904	-0.32960621566447146	0.8445907073123023	0.3704320415534126	0.6853008802762698	0.7843791452474791	0.40173974903877196	0.1941321792537134	0.7964747395676037	0.406680074042966	-0.2664484385648237	0.8043752378327143	0.45243533513325607	-0.2573851174596429	0.6202462970557733	0.3899503433367249	-0.2745086554612643	0.6501389022866795	0.41720097980341825	-0.33198706793963173	0.8411290636847089	0.4262403022746948	1.267578952115546	0.7717350138562452	0.42282379274071713	1.521884987366493	0.7422331979404077	0.43689899016459427	1.3991679446427836	0.6834303200631991	0.6026146713237951	1.1980786489275264	0.7662958911143243	0.6462974398083678	0.9227486674856741	0.7412459458510654	0.5631074977238739	0.6748101090558806	0.6298643872801373	0.4598185756380723	0.5894226214038407	0.620644230022481	0.46129789147129197	0.5809709191283335	0.6191989216970424	0.49360107914036344	0.5634971782818127	0.6550881492305376	0.2750944022264858	1.1562760802252916	0.79241375878809	0.26703518474661814	0.8917457319678738	0.7418388752386589	0.40738263567314786	0.6835536562589913	0.6338233482602345	0.4866168107008192	0.6407294613072698	0.5753858696676416	0.49493099931167395	0.6068369483339693	0.5765003962069275	0.46753203257269893	0.5765472985009632	0.6391908272993578	
5	0.0833333333333333	0.5744877951861587	0.7070931865816356	0.7749516185159213	0.5906160400605592	0.1850363339703503	0.83936301778302	0.6061578866865031	-0.2396706989073804	0.7851412582211972	0.5992879479655361	-0.2659611299705971	0.640165144110204	0.6599984189870374	-0.25647872162318747	0.6430375208843195	0.5788409231732996	-0.333484384753556	0.8493774363344101	0.36983407867731893	0.6848352749431019	0.785646759469252	0.40169818806476465	0.19477859062607022	0.796363532027691	0.40652004016824633	-0.2658117048644879	0.8041891615909735	0.4523519141926796	-0.25681278292777476	0.619386231054764	0.3898300960827833	-0.27532468270308463	0.6503128945684122	0.41700031536311777	-0.33194852137694036	0.8423129934717849	0.42629241749136904	1.2673414254621864	0.7717111628505782	0.4229123307055651	1.5217944226769236	0.7434817719884249	0.4366028452587482	1.3994332029158176	0.6823730395707499	0.6032047939136311	1.197819630651884	0.7682554834301923	0.6471252676424923	0.923585247116408	0.7379084134847707	0.5629555657506843	0.6745782010536483	0.6298550678901553	0.4597801830414333	0.5894546257528511	0.6204200378882394	0.4621665286134994	0.5812628826313648	0.6190173270960377	0.4958209681999775	0.5638066338177544	0.6530114344400135	0.2754245515738774	1.1564636299620146	0.7918266758610597	0.26702922946038554	0.8918582170052236	0.7418973167112377	0.40743294075944503	0.683010372535808	0.6340476967630785	0.48680808769385836	0.6403398093311232	0.5758525226172377	0.494994385464197	0.6070876709398086	0.5761498353162424	0.4684662915307931	0.576344823287064	0.639413448140637	
6	0.1	0.5744778921230455	0.7066836981002288	0.7751296766646798	0.5902262337942877	0.18280409415679483	0.8403185580639285	0.6062137246497749	-0.2397616195634274	0.7852226410698788	0.5988570753929666	-0.26508046604872615	0.638909065816221	0.6591490392614434	-0.25737790643915737	0.6435924290316475	0.5797538056360239	-0.3367168552465569	0.8532835551961043	0.36947494234568035	0.6846758342681571	0.7865793952523612	0.4016783689468659	0.19541087181671207	0.7961073108283199	0.4063495002793649	-0.2652876000110507	0.8040906871607675	0.45232555844100325	-0.2559584213902409	0.6181744200192435	0.3897020416586637	-0.27607105968996765	0.6501993636193174	0.41678880585323314	-0.33212015169089304	0.8435147639007493	0.4263838737682491	1.266893706661394	0.7716364036126665	0.4229923685116209	1.5216222905162187	0.7460373167855354	0.43646287046730375	1.3995802822421717	0.6814029642538832	0.6037161977661499	1.1975313474598894	0.769938845873148	0.647689111739497	0.9244023557424588	0.7345357764934096	0.562972074402492	0.6743708322422688	0.6298290098835777	0.45972740278992297	0.5896713106416964	0.6197228208885133	0.46307478309169414	0.5813094623191681	0.619097638575415	0.49787460298532304	0.5638816219611482	0.6517612258732559	0.2759673083837464	1.1567806167938062	0.7906354213476205	0.26705661319180013	0.891846698551404	0.7419806006353682	0.40730201270520805	0.6820305747516968	0.6347178067436867	0.4867392285420503	0.6396265913181829	0.5770299319535471	0.495139609194547	0.6076848766040066	0.5751758810080161	0.469187139333325	0.5764325877627561	0.639235454035743	
